<svg width="56" height="56" viewBox="0 0 56 56" fill="none" xmlns="http://www.w3.org/2000/svg">
<g clip-path="url(#clip0_4_48)">
<path d="M28.0001 0C12.56 0 0.00012207 12.5611 0.00012207 28C0.00012207 43.4389 12.56 56 28.0001 56C43.4403 56 56.0001 43.4389 56.0001 28C56.0001 12.5611 43.4403 0 28.0001 0ZM39.1313 28.981L22.798 39.481C22.6066 39.6051 22.3856 39.6667 22.1668 39.6667C21.9754 39.6667 21.7817 39.6188 21.6086 39.5243C21.2325 39.3192 21.0001 38.9272 21.0001 38.5V17.5C21.0001 17.0728 21.2325 16.6808 21.6086 16.4757C21.9777 16.2729 22.4403 16.2854 22.798 16.519L39.1313 27.019C39.464 27.2332 39.6668 27.6035 39.6668 28C39.6668 28.3965 39.464 28.7667 39.1313 28.981Z" fill="#595959"/>
</g>
<defs>
<clipPath id="clip0_4_48">
<rect width="56" height="56" fill="white"/>
</clipPath>
</defs>
</svg>
